<?xml version="1.0" encoding="utf-8"?>
<svg height="800px" width="800px" version="1.1" id="_x32_" xmlns="http://www.w3.org/2000/svg" viewBox="0 0 512 512">
  <style type="text/css">
	.st0{fill:#000000;}
</style>
  <g transform="matrix(1, 0, 0, 1, -0.899034, 3.14662)">
    <path class="st0" d="M 361.156 66.812 C 362.867 62.913 372.563 62.516 393.444 65.488 C 414.334 68.47 432.948 63.971 442.979 48.974 C 452.445 34.814 452.313 14.392 421.365 3.224 C 388.547 -8.625 365.513 14.886 358.835 30.068 C 355.589 37.444 343 66.062 343 66.062 L 358.483 72.891 C 358.483 72.891 359.436 70.72 361.156 66.812 Z"/>
    <path class="st0" d="M 356.763 75.459 L 341.271 68.639 L 334.733 85.681 L 348.779 91.083 L 356.763 75.459 Z"/>
    <path class="st0" d="M 360.546 175.481 L 365.82 165.5 L 348.976 157.204 L 344.553 168.643 L 319.625 157.9 L 347.771 93.623 L 333.42 88.11 L 304.833 151.037 L 276.031 140.051 L 299.279 92.322 L 282.998 84.507 L 261.908 131.824 L 220.133 114.088 L 196.64 167.488 L 198.016 164.761 L 156.076 259.669 C 151.03 271.128 141.626 280.127 129.945 284.662 L 115.204 290.396 C 103.532 294.948 94.136 303.938 89.09 315.407 L 60.48 380.389 C 46.471 412.246 60.93 449.43 92.769 463.44 L 191.011 506.668 C 215.695 517.518 243.523 511.228 261.344 493.055 C 262.672 493.992 393.337 209.993 395.11 193.558 C 395.992 185.344 360.546 175.481 360.546 175.481 Z"/>
    <path class="st0" d="M 243.183 43.579 L 287.354 72.683 L 283.322 81.849 L 300.993 89.631 L 312.47 63.552 C 315.319 57.086 314.173 49.552 309.541 44.224 L 278.126 8.044 C 274.227 3.562 268.396 1.252 262.476 1.852 C 256.574 2.46 251.325 5.91 248.414 11.097 L 239.257 27.48 C 236.134 33.045 237.846 40.067 243.183 43.579 Z"/>
    <path class="st0" d="M 366.465 148.667 L 410.636 119.563 L 406.604 110.397 L 424.275 102.615 L 435.752 128.694 C 438.601 135.16 437.455 142.694 432.823 148.022 L 401.408 184.202 C 397.509 188.684 391.678 190.994 385.758 190.394 C 379.856 189.786 374.607 186.336 371.696 181.149 L 362.539 164.766 C 359.416 159.201 361.128 152.179 366.465 148.667 Z" transform="translate(399.141, 146.55) matrix(-0.649268, -0.76056, 0.76056, -0.649268, 0, 0) translate(-399.141, -146.55)"/>
  </g>
</svg>