<?xml version="1.0" encoding="utf-8"?>
<svg height="800px" width="800px" version="1.1" id="_x32_" xmlns="http://www.w3.org/2000/svg" viewBox="0 0 512 512">
  <style type="text/css">
	.st0{fill:#000000;}
</style>
  <g>
    <path class="st0" d="M365.202,66.812c1.711-3.899,11.407-4.296,32.288-1.324c20.89,2.982,39.504-1.517,49.535-16.514 c9.466-14.16,9.334-34.582-21.614-45.75c-32.818-11.849-55.852,11.662-62.53,26.844c-3.246,7.376-15.835,35.994-15.835,35.994 l15.483,6.829C362.529,72.891,363.482,70.72,365.202,66.812z"/>
    <polygon class="st0" points="360.809,76.808 345.317,69.988 339.821,86.468 352.375,91.982 &#9;"/>
    <path class="st0" d="M429.769,91.479c-32.844-11.866-55.869,11.646-62.557,26.836c-3.238,7.366-15.835,36.003-15.835,36.003 l15.483,6.818c0,0,0.961-2.17,2.673-6.069c1.729-3.909,11.415-4.314,32.297-1.332c20.872,2.973,39.504-1.509,49.544-16.524 C460.832,123.071,460.682,102.647,429.769,91.479z"/>
    <path class="st0" d="M 359.41 175.367 L 365.139 165.046 L 349.657 158.226 L 345.916 169.438 L 322.772 159.249 L 350.468 96.321 L 337.915 90.807 L 310.227 153.734 L 292.627 145.988 L 314.572 96.1 L 301.798 90.489 L 279.853 140.369 L 220.133 114.088 L 196.64 167.488 L 198.016 164.761 L 156.076 259.669 C 151.03 271.128 141.626 280.127 129.945 284.662 L 115.204 290.396 C 103.532 294.948 94.136 303.938 89.09 315.407 L 60.48 380.389 C 46.471 412.246 60.93 449.43 92.769 463.44 L 191.011 506.668 C 215.695 517.518 243.523 511.228 261.344 493.055 C 262.672 493.992 393.337 209.993 395.11 193.558 C 395.992 185.344 359.41 175.367 359.41 175.367 Z"/>
    <path class="st0" d="M260.714,47.625l44.171,29.104l-4.032,9.166l17.671,7.782l11.477-26.079c2.849-6.466,1.703-14-2.929-19.328 L295.657,12.09c-3.899-4.482-9.73-6.792-15.65-6.192c-5.902,0.608-11.151,4.058-14.062,9.245l-9.157,16.383 C253.665,37.091,255.377,44.113,260.714,47.625z"/>
    <path class="st0" d="M207.006,83.098l44.18,29.112l-4.041,9.158l17.688,7.79l11.469-26.087c2.84-6.466,1.711-13.991-2.93-19.328 l-31.415-36.179c-3.891-4.482-9.73-6.793-15.641-6.184c-5.92,0.609-11.151,4.049-14.063,9.237l-9.175,16.382 C199.957,72.564,201.677,79.604,207.006,83.098z"/>
  </g>
</svg>